<svg xmlns="http://www.w3.org/2000/svg" viewBox="0 0 231.23 231.22"><defs><style>.cls-1{opacity:0.5;}.cls-2{fill:#4d4d4d;}.cls-3{fill:#d2af01;}</style></defs><title>contactSymbol</title><g id="Layer_2" data-name="Layer 2"><g id="Layer_1-2" data-name="Layer 1"><g id="Group_157" data-name="Group 157" class="cls-1"><path id="Path_202" data-name="Path 202" class="cls-2" d="M122.06,152.76l-17.83-10-8.84,2.49,17.83,10Z"/><path id="Path_203" data-name="Path 203" class="cls-2" d="M117.78,97.12l2.59,9.21,17.83,10-2.58-9.21Z"/><path id="Path_204" data-name="Path 204" class="cls-2" d="M24,105.14l17.83,10-2.48-8.84-17.83-10Z"/><path id="Path_205" data-name="Path 205" class="cls-2" d="M123.57,117.72l5.1,18.16-13.06,3.67,17.84,10,13.05-3.67-5.1-18.16Z"/><path id="Path_206" data-name="Path 206" class="cls-2" d="M36.15,94.93,32.49,81.87,91.84,65.2,74,55.19,14.65,71.86l3.67,13.06Z"/><path id="Path_207" data-name="Path 207" class="cls-2" d="M78.09,150.09,53.58,157l-6.89-24.51-17.83-10,14.7,52.35,52.36-14.7Z"/><path id="Path_208" data-name="Path 208" class="cls-2" d="M85.4,52l17.83,10,5.57,3.12,17.83,10-9-32.19Z"/><path id="Path_209" data-name="Path 209" class="cls-2" d="M112,76.52l2.59,9.21,17.83,10-2.59-9.21Z"/></g><g id="Group_158" data-name="Group 158"><path id="Path_210" data-name="Path 210" class="cls-3" d="M193.13,153.71h-34.5L171,141.3h34.5ZM165,151.07h27l7.13-7.13h-27Z"/><path id="Path_211" data-name="Path 211" class="cls-3" d="M199.89,84.27H165.4L152.58,71.46h34.5Zm-33.4-2.63h27L186,74.1H159Z"/><path id="Path_212" data-name="Path 212" class="cls-3" d="M72.6,153.71H38.1L25.69,141.3h34.5Zm-33.41-2.64h27l-7.13-7.13h-27Z"/><path id="Path_213" data-name="Path 213" class="cls-3" d="M215.48,131.36H181l15.75-15.75L175.34,94.22h34.5l21.39,21.39Zm-28.13-2.64h27l13.11-13.1L208.74,96.86h-27l18.75,18.76Z"/><path id="Path_214" data-name="Path 214" class="cls-3" d="M50.25,131.36H15.75L0,115.61,66.91,48.7h34.5L34.5,115.61Zm-33.41-2.64h27L30.77,115.61,95,51.34H68L3.73,115.61Z"/><path id="Path_215" data-name="Path 215" class="cls-3" d="M115.61,231.22l-61-61h34.5l26.53,26.54,26.54-26.54h34.5ZM61,172.83l54.66,54.67,54.67-54.67h-27l-27.62,27.63L88,172.83Z"/><path id="Path_216" data-name="Path 216" class="cls-3" d="M154.37,38.75H76.86L115.61,0ZM83.23,36.12H148L115.61,3.73Z"/><path id="Path_217" data-name="Path 217" class="cls-3" d="M177.13,61.52h-34.5L129.82,48.7h34.5Zm-33.41-2.64h27l-7.54-7.54h-27Z"/></g></g></g></svg>