<svg xmlns="http://www.w3.org/2000/svg" xmlns:xlink="http://www.w3.org/1999/xlink" viewBox="0 0 309.07 347.79"><defs><style>.cls-1{fill:#4d4d4d;}.cls-2{fill:url(#linear-gradient);}.cls-3{fill:#b49708;}.cls-4{fill:#917902;}.cls-5{fill:#d2af01;}</style><linearGradient id="linear-gradient" x1="-151.24" y1="398.44" x2="-150.54" y2="398.44" gradientTransform="matrix(475.42, 0, 0, -548.92, 66494.9, 218889.64)" gradientUnits="userSpaceOnUse"><stop offset="0" stop-color="#7bdaff"/><stop offset="1" stop-color="#59bdef"/></linearGradient></defs><title>contactLetter</title><g id="Layer_2" data-name="Layer 2"><g id="Layer_1-2" data-name="Layer 1"><path id="Path_224" data-name="Path 224" class="cls-1" d="M1.79,148.62h0c.06-.16.12-.32.19-.47a3.45,3.45,0,0,1,.14-.34c0-.11.1-.23.15-.34a20,20,0,0,1,7.92-9.73l1-.55h0l117-67.55,117-67.55h0l1-.55a9.62,9.62,0,0,1,9.68-.44l.23.12a1.71,1.71,0,0,1,.23.13l15.44,8.9L262.69,14l30.88,163.75a23.12,23.12,0,0,1-1.68,13.08c0,.12-.09.23-.14.35l-.14.33c-1.77,4.2-4.52,7.76-7.93,9.72L50.43,336l2.15,10.28L38,337.79l-.22-.13c-2.86-1.53-5-4.54-5.81-8.76L.3,161.23A23.06,23.06,0,0,1,1.79,148.62Z"/><path id="Path_225" data-name="Path 225" class="cls-2" d="M63,346.24,298.86,210c7.13-4.12,11.45-15.17,9.66-24.68L277.35,20.08c-1.8-9.51-9-13.89-16.17-9.77L25.36,146.52c-7.13,4.12-11.46,15.17-9.66,24.68L46.87,336.48C48.67,346,55.9,350.36,63,346.24Z"/><path id="Path_226" data-name="Path 226" class="cls-3" d="M26.32,146l117-67.54,36.65,194.29L64,345.69c-7.67,4.42-15.23.83-16.9-8L15.47,170C13.8,161.15,18.66,150.39,26.32,146Z"/><path id="Path_227" data-name="Path 227" class="cls-3" d="M260.22,10.87l-117,67.55,36.42,193.07,118.2-60.9c7.67-4.42,12.52-15.19,10.86-24L277.12,18.88C275.45,10,267.89,6.44,260.22,10.87Z"/><path id="Path_228" data-name="Path 228" class="cls-4" d="M307.26,199.16a23,23,0,0,1-9.37,11.43L64,345.69c-4.14,2.39-8.24,2.42-11.41.57L157.37,153.18Z"/><path id="Path_229" data-name="Path 229" class="cls-5" d="M17,157.4A23,23,0,0,1,26.32,146L260.22,10.87c4.14-2.39,8.25-2.42,11.42-.57L166.84,203.38Z"/></g></g></svg>