<svg xmlns="http://www.w3.org/2000/svg" viewBox="0 0 39.56 39.56"><defs><style>.cls-1{fill:none;stroke:#666;stroke-miterlimit:10;stroke-width:1.5px;}.cls-2{fill:#666;}</style></defs><title>facebook</title><g id="Layer_2" data-name="Layer 2"><g id="Layer_1-2" data-name="Layer 1"><path class="cls-1" d="M19.78,38.81h0a19,19,0,0,1-19-19h0a19,19,0,0,1,19-19h0a19,19,0,0,1,19,19h0A19,19,0,0,1,19.78,38.81Z"/><path class="cls-2" d="M16.38,31H21V19.4h3.24l.34-3.88H21V13.3c0-.91.19-1.27,1.07-1.27h2.51V8H21.38c-3.44,0-5,1.52-5,4.43v3.1H14v3.93h2.41Z"/></g></g></svg>