<svg xmlns="http://www.w3.org/2000/svg" viewBox="0 0 39.56 39.56"><defs><style>.cls-1{fill:none;stroke:#666;stroke-miterlimit:10;stroke-width:1.5px;}.cls-2{fill:#666;}</style></defs><title>linkedin</title><g id="Layer_2" data-name="Layer 2"><g id="Layer_1-2" data-name="Layer 1"><path class="cls-1" d="M19.78,38.81h0a19,19,0,0,1-19-19h0a19,19,0,0,1,19-19h0a19,19,0,0,1,19,19h0A19,19,0,0,1,19.78,38.81Z"/><rect class="cls-2" x="11.6" y="14.71" width="3.94" height="12.72"/><path class="cls-2" d="M13.55,13a2.35,2.35,0,1,0-2.33-2.35A2.34,2.34,0,0,0,13.55,13Z"/><path class="cls-2" d="M21.83,20.75c0-1.79.83-2.85,2.4-2.85s2.15,1,2.15,2.85v6.68H30.3v-8c0-3.41-1.93-5.06-4.63-5.06a4.45,4.45,0,0,0-3.84,2.1V14.71H18.06V27.43h3.77Z"/></g></g></svg>