<svg xmlns="http://www.w3.org/2000/svg" viewBox="0 0 117.03 117.03"><defs><style>.cls-1{opacity:0.8;}.cls-2{fill:#e3b721;}.cls-3{fill:none;}.cls-4{opacity:0.6;}</style></defs><title>logo</title><g id="Layer_2" data-name="Layer 2"><g id="Layer_1-2" data-name="Layer 1"><g class="cls-1"><path class="cls-2" d="M58.51,86.45A27.94,27.94,0,1,1,86.45,58.51,28,28,0,0,1,58.51,86.45Zm0-49.66A21.73,21.73,0,1,0,80.24,58.51,21.74,21.74,0,0,0,58.51,36.79Z"/></g><circle class="cls-3" cx="58.51" cy="58.51" r="24.83"/><path class="cls-2" d="M101.35,101.35H15.68V15.68h85.67ZM21.89,95.14H95.14V21.89H21.89Z"/><rect class="cls-3" x="18.78" y="18.78" width="79.46" height="79.46"/><g class="cls-1"><path class="cls-2" d="M74.19,117,0,74.19,42.84,0,117,42.84ZM8.48,71.92l63.44,36.63,36.63-63.44L45.11,8.48Z"/></g><rect class="cls-3" x="18.78" y="18.78" width="79.46" height="79.46" transform="translate(-21.42 79.93) rotate(-60)"/><g class="cls-4"><path class="cls-2" d="M42.84,117,0,42.84,74.19,0,117,74.19ZM8.48,45.11l36.63,63.44,63.44-36.63L71.92,8.48Z"/></g><rect class="cls-3" x="18.78" y="18.78" width="79.46" height="79.46" transform="translate(-21.42 37.1) rotate(-30)"/></g></g></svg>