<svg xmlns="http://www.w3.org/2000/svg" viewBox="0 0 71.71 73.31"><defs><style>.cls-1{fill:#999;}</style></defs><title>svg1</title><g id="Layer_2" data-name="Layer 2"><g id="Layer_1-2" data-name="Layer 1"><path class="cls-1" d="M35.86,73.28A35.36,35.36,0,0,1,10.49,62.56a37.26,37.26,0,0,1,0-51.84,35.37,35.37,0,0,1,50.73,0,37.26,37.26,0,0,1,0,51.84A35.35,35.35,0,0,1,35.86,73.28Zm0-71.36a33.39,33.39,0,0,0-24,10.17,35.29,35.29,0,0,0,0,49.1,33.51,33.51,0,0,0,48.06,0,35.26,35.26,0,0,0,0-49.1A33.41,33.41,0,0,0,35.86,1.92Z"/><path class="cls-1" d="M37.51,73.31a26,26,0,0,1-17.9-7.14A27.41,27.41,0,0,1,18.09,28c.27-.3.55-.6.83-.88a.93.93,0,0,1,1.34,0,1,1,0,0,1,0,1.37c-.26.26-.52.54-.77.82a25.45,25.45,0,0,0,1.41,35.43,24.19,24.19,0,0,0,34.67-1.44,25.46,25.46,0,0,0-1.4-35.43,24.08,24.08,0,0,0-14.51-6.55,1,1,0,0,1,.17-1.92,25.91,25.91,0,0,1,15.62,7.05A27.42,27.42,0,0,1,57,64.62,26.09,26.09,0,0,1,37.51,73.31Z"/><path class="cls-1" d="M29.82,25.83A3.92,3.92,0,0,1,27,24.64a4.15,4.15,0,0,1,0-5.77,3.94,3.94,0,0,1,5.65,0,4.16,4.16,0,0,1,0,5.77h0A3.94,3.94,0,0,1,29.82,25.83Zm0-6.22a2.07,2.07,0,0,0-1.48.63,2.17,2.17,0,0,0,0,3,2.12,2.12,0,0,0,3,0h0a2.17,2.17,0,0,0,0-3A2.08,2.08,0,0,0,29.82,19.61Z"/></g></g></svg>