<svg xmlns="http://www.w3.org/2000/svg" viewBox="0 0 82.65 73.07"><defs><style>.cls-1{fill:#999;}</style></defs><title>svg2</title><g id="Layer_2" data-name="Layer 2"><g id="Layer_1-2" data-name="Layer 1"><path class="cls-1" d="M81.61,73.07H41.32a1,1,0,0,1-1-.63L31.44,52.07C14.8,54.8,3.26,64,2.16,71H18.91a1.06,1.06,0,0,1,0,2.12H1A1.05,1.05,0,0,1,0,72c0-8.67,12.92-18.85,30.57-21.93L25.18,37.79a1.12,1.12,0,0,1,0-.88L41.34.62A1,1,0,0,1,42.26,0a1.06,1.06,0,0,1,1,.57L63,39.55A1.06,1.06,0,0,1,62.53,41a1,1,0,0,1-1.4-.45l-18.79-37L27.27,37.36,32.7,49.75a62,62,0,0,1,8.62-.6c22.26,0,41.33,12.57,41.33,22.86A1.05,1.05,0,0,1,81.61,73.07ZM42,71H80.48c-1.36-8.14-17.72-19.67-39.16-19.67a62.58,62.58,0,0,0-7.74.48Z"/><path class="cls-1" d="M66.18,51.57a4.25,4.25,0,1,1,4.15-4.25A4.21,4.21,0,0,1,66.18,51.57Zm0-6.37a2.12,2.12,0,1,0,2.07,2.12A2.1,2.1,0,0,0,66.18,45.2Z"/></g></g></svg>