<svg xmlns="http://www.w3.org/2000/svg" viewBox="0 0 96.33 75.75"><defs><style>.cls-1{fill:#999;}</style></defs><title>svg3</title><g id="Layer_2" data-name="Layer 2"><g id="Layer_1-2" data-name="Layer 1"><path class="cls-1" d="M95.24,72.57h0l-25.94-.38a1.15,1.15,0,0,1,0-2.29h0l24.13.35L61,3.65,39.67,46.8,52.19,70.22a1.2,1.2,0,0,1,0,1.15,1.08,1.08,0,0,1-.94.56h0l-24.49-.36a1,1,0,0,1-.92-.56,1.18,1.18,0,0,1,0-1.11L37.19,46.84,26.74,27.3,2,70.64A1.06,1.06,0,0,1,.53,71a1.19,1.19,0,0,1-.37-1.58l25.68-45a1.07,1.07,0,0,1,.93-.56h0a1.09,1.09,0,0,1,.93.58l10.67,20L60.06.62A1.07,1.07,0,0,1,61,0h0a1.07,1.07,0,0,1,1,.62L96.21,70.9a1.19,1.19,0,0,1,0,1.13A1,1,0,0,1,95.24,72.57ZM28.54,69.3l20.82.31L38.47,49.23Z"/><path class="cls-1" d="M61.91,75.75a4.6,4.6,0,1,1,4.36-4.59A4.49,4.49,0,0,1,61.91,75.75Zm0-6.89a2.3,2.3,0,1,0,2.18,2.3A2.25,2.25,0,0,0,61.91,68.86Z"/></g></g></svg>