<svg xmlns="http://www.w3.org/2000/svg" viewBox="0 0 89.63 72.29"><defs><style>.cls-1{fill:#999;}</style></defs><title>svg4</title><g id="Layer_2" data-name="Layer 2"><g id="Layer_1-2" data-name="Layer 1"><path class="cls-1" d="M35.37,72.29a1,1,0,0,1-.72-.31L.3,36.89a1.08,1.08,0,0,1,0-1.49L34.65.31a1,1,0,0,1,1.45,0L70.45,35.4a1.08,1.08,0,0,1,0,1.49L36.1,72A1,1,0,0,1,35.37,72.29ZM2.48,36.15l32.89,33.6,32.89-33.6L35.37,2.54Z"/><path class="cls-1" d="M62,64.39a1,1,0,0,1-.73-.31L52.33,55a1.06,1.06,0,0,1,0-1.49,1,1,0,0,1,1.45,0L62,61.85l25.15-25.7L62,10.44,36.1,36.89a1,1,0,0,1-1.45,0,1.06,1.06,0,0,1,0-1.49L61.26,8.21a1,1,0,0,1,1.45,0L89.32,35.4a1.06,1.06,0,0,1,0,1.49L62.71,64.08A1,1,0,0,1,62,64.39Z"/><path class="cls-1" d="M28.76,47.11a4.21,4.21,0,1,1,4.12-4.21A4.16,4.16,0,0,1,28.76,47.11Zm0-6.31a2.1,2.1,0,1,0,2.06,2.1A2.08,2.08,0,0,0,28.76,40.8Z"/></g></g></svg>